<mxfile host="Electron" agent="Mozilla/5.0 (Windows NT 10.0; Win64; x64) AppleWebKit/537.36 (KHTML, like Gecko) draw.io/26.2.15 Chrome/134.0.6998.205 Electron/35.2.1 Safari/537.36" version="26.2.15">
  <diagram name="Page-1" id="uTM_t4Ej9pJb_nBEWPW1">
    <mxGraphModel dx="2066" dy="1209" grid="1" gridSize="10" guides="1" tooltips="1" connect="1" arrows="1" fold="1" page="1" pageScale="1" pageWidth="1100" pageHeight="1700" math="0" shadow="0">
      <root>
        <mxCell id="0" />
        <mxCell id="1" parent="0" />
        <mxCell id="aJE1OrVwy0cm8b1BQcLN-3" value="Data Flow Diagram" style="text;strokeColor=none;fillColor=none;html=1;fontSize=24;fontStyle=1;verticalAlign=middle;align=center;" parent="1" vertex="1">
          <mxGeometry x="115" y="20" width="100" height="40" as="geometry" />
        </mxCell>
        <mxCell id="aJE1OrVwy0cm8b1BQcLN-21" style="edgeStyle=orthogonalEdgeStyle;rounded=0;orthogonalLoop=1;jettySize=auto;html=1;strokeWidth=3;" parent="1" source="aJE1OrVwy0cm8b1BQcLN-6" target="aJE1OrVwy0cm8b1BQcLN-15" edge="1">
          <mxGeometry relative="1" as="geometry" />
        </mxCell>
        <mxCell id="aJE1OrVwy0cm8b1BQcLN-4" value="" style="rounded=0;whiteSpace=wrap;html=1;dashed=1;" parent="1" vertex="1">
          <mxGeometry x="90" y="109" width="120" height="420" as="geometry" />
        </mxCell>
        <mxCell id="aJE1OrVwy0cm8b1BQcLN-5" value="Sources" style="text;html=1;align=center;verticalAlign=middle;whiteSpace=wrap;rounded=0;fontStyle=1;fontSize=14;labelBackgroundColor=default;" parent="1" vertex="1">
          <mxGeometry x="120" y="109" width="60" height="30" as="geometry" />
        </mxCell>
        <mxCell id="aJE1OrVwy0cm8b1BQcLN-20" style="edgeStyle=orthogonalEdgeStyle;rounded=0;orthogonalLoop=1;jettySize=auto;html=1;entryX=0;entryY=0.5;entryDx=0;entryDy=0;strokeWidth=3;" parent="1" source="aJE1OrVwy0cm8b1BQcLN-6" target="aJE1OrVwy0cm8b1BQcLN-14" edge="1">
          <mxGeometry relative="1" as="geometry" />
        </mxCell>
        <mxCell id="aJE1OrVwy0cm8b1BQcLN-22" style="edgeStyle=orthogonalEdgeStyle;rounded=0;orthogonalLoop=1;jettySize=auto;html=1;entryX=0;entryY=0.5;entryDx=0;entryDy=0;strokeWidth=3;" parent="1" source="aJE1OrVwy0cm8b1BQcLN-6" target="aJE1OrVwy0cm8b1BQcLN-16" edge="1">
          <mxGeometry relative="1" as="geometry" />
        </mxCell>
        <mxCell id="aJE1OrVwy0cm8b1BQcLN-6" value="" style="image;aspect=fixed;html=1;points=[];align=center;fontSize=12;image=img/lib/azure2/general/Folder_Blank.svg;" parent="1" vertex="1">
          <mxGeometry x="121" y="190" width="69" height="56.00000000000001" as="geometry" />
        </mxCell>
        <mxCell id="aJE1OrVwy0cm8b1BQcLN-29" style="edgeStyle=orthogonalEdgeStyle;rounded=0;orthogonalLoop=1;jettySize=auto;html=1;entryX=0;entryY=0.5;entryDx=0;entryDy=0;strokeWidth=2;" parent="1" source="aJE1OrVwy0cm8b1BQcLN-7" target="aJE1OrVwy0cm8b1BQcLN-27" edge="1">
          <mxGeometry relative="1" as="geometry">
            <Array as="points">
              <mxPoint x="250" y="442" />
              <mxPoint x="250" y="442" />
            </Array>
          </mxGeometry>
        </mxCell>
        <mxCell id="aJE1OrVwy0cm8b1BQcLN-30" style="edgeStyle=orthogonalEdgeStyle;rounded=0;orthogonalLoop=1;jettySize=auto;html=1;entryX=0;entryY=0.5;entryDx=0;entryDy=0;strokeWidth=2;" parent="1" source="aJE1OrVwy0cm8b1BQcLN-7" target="aJE1OrVwy0cm8b1BQcLN-28" edge="1">
          <mxGeometry relative="1" as="geometry" />
        </mxCell>
        <mxCell id="aJE1OrVwy0cm8b1BQcLN-31" style="edgeStyle=orthogonalEdgeStyle;rounded=0;orthogonalLoop=1;jettySize=auto;html=1;entryX=0;entryY=0.75;entryDx=0;entryDy=0;strokeWidth=2;" parent="1" source="aJE1OrVwy0cm8b1BQcLN-7" target="aJE1OrVwy0cm8b1BQcLN-26" edge="1">
          <mxGeometry relative="1" as="geometry" />
        </mxCell>
        <mxCell id="aJE1OrVwy0cm8b1BQcLN-7" value="" style="image;aspect=fixed;html=1;points=[];align=center;fontSize=12;image=img/lib/azure2/general/Folder_Blank.svg;" parent="1" vertex="1">
          <mxGeometry x="121" y="414" width="69" height="56.00000000000001" as="geometry" />
        </mxCell>
        <mxCell id="aJE1OrVwy0cm8b1BQcLN-8" value="ERP" style="text;html=1;align=center;verticalAlign=middle;whiteSpace=wrap;rounded=0;fontStyle=1;fontSize=14;labelBackgroundColor=default;" parent="1" vertex="1">
          <mxGeometry x="125" y="247" width="60" height="30" as="geometry" />
        </mxCell>
        <mxCell id="aJE1OrVwy0cm8b1BQcLN-9" value="CRM" style="text;html=1;align=center;verticalAlign=middle;whiteSpace=wrap;rounded=0;fontStyle=1;fontSize=14;labelBackgroundColor=default;" parent="1" vertex="1">
          <mxGeometry x="121" y="470" width="60" height="30" as="geometry" />
        </mxCell>
        <mxCell id="aJE1OrVwy0cm8b1BQcLN-10" value="" style="rounded=0;whiteSpace=wrap;html=1;fillColor=none;strokeColor=#d79b00;" parent="1" vertex="1">
          <mxGeometry x="290" y="130" width="150" height="410" as="geometry" />
        </mxCell>
        <mxCell id="aJE1OrVwy0cm8b1BQcLN-11" value="&lt;font style=&quot;font-size: 16px;&quot;&gt;Bronze Layer&lt;/font&gt;" style="text;strokeColor=#d79b00;fillColor=#ffe6cc;html=1;fontSize=20;fontStyle=1;verticalAlign=middle;align=center;" parent="1" vertex="1">
          <mxGeometry x="290" y="100" width="150" height="30" as="geometry" />
        </mxCell>
        <mxCell id="mp29d_6Jfno40X9PeaE7-15" style="edgeStyle=orthogonalEdgeStyle;rounded=0;orthogonalLoop=1;jettySize=auto;html=1;" parent="1" source="aJE1OrVwy0cm8b1BQcLN-14" edge="1">
          <mxGeometry relative="1" as="geometry">
            <mxPoint x="520" y="190" as="targetPoint" />
          </mxGeometry>
        </mxCell>
        <mxCell id="aJE1OrVwy0cm8b1BQcLN-14" value="crm_sales_details" style="text;strokeColor=#d79b00;fillColor=#ffe6cc;html=1;fontSize=13;fontStyle=1;verticalAlign=middle;align=center;" parent="1" vertex="1">
          <mxGeometry x="310" y="170" width="120" height="40" as="geometry" />
        </mxCell>
        <mxCell id="mp29d_6Jfno40X9PeaE7-10" style="edgeStyle=orthogonalEdgeStyle;rounded=0;orthogonalLoop=1;jettySize=auto;html=1;" parent="1" source="aJE1OrVwy0cm8b1BQcLN-15" edge="1">
          <mxGeometry relative="1" as="geometry">
            <mxPoint x="520" y="250" as="targetPoint" />
          </mxGeometry>
        </mxCell>
        <mxCell id="aJE1OrVwy0cm8b1BQcLN-15" value="crm_cust_info" style="text;strokeColor=#d79b00;fillColor=#ffe6cc;html=1;fontSize=13;fontStyle=1;verticalAlign=middle;align=center;" parent="1" vertex="1">
          <mxGeometry x="310" y="230" width="120" height="40" as="geometry" />
        </mxCell>
        <mxCell id="mp29d_6Jfno40X9PeaE7-11" style="edgeStyle=orthogonalEdgeStyle;rounded=0;orthogonalLoop=1;jettySize=auto;html=1;" parent="1" source="aJE1OrVwy0cm8b1BQcLN-16" edge="1">
          <mxGeometry relative="1" as="geometry">
            <mxPoint x="520" y="310" as="targetPoint" />
          </mxGeometry>
        </mxCell>
        <mxCell id="aJE1OrVwy0cm8b1BQcLN-16" value="crm_prod_info" style="text;strokeColor=#d79b00;fillColor=#ffe6cc;html=1;fontSize=13;fontStyle=1;verticalAlign=middle;align=center;" parent="1" vertex="1">
          <mxGeometry x="310" y="290" width="120" height="40" as="geometry" />
        </mxCell>
        <mxCell id="mp29d_6Jfno40X9PeaE7-14" style="edgeStyle=orthogonalEdgeStyle;rounded=0;orthogonalLoop=1;jettySize=auto;html=1;" parent="1" source="aJE1OrVwy0cm8b1BQcLN-26" edge="1">
          <mxGeometry relative="1" as="geometry">
            <mxPoint x="520" y="500" as="targetPoint" />
          </mxGeometry>
        </mxCell>
        <mxCell id="aJE1OrVwy0cm8b1BQcLN-26" value="crm_prod_info" style="text;strokeColor=#d79b00;fillColor=#ffe6cc;html=1;fontSize=13;fontStyle=1;verticalAlign=middle;align=center;" parent="1" vertex="1">
          <mxGeometry x="310" y="480" width="120" height="40" as="geometry" />
        </mxCell>
        <mxCell id="mp29d_6Jfno40X9PeaE7-13" style="edgeStyle=orthogonalEdgeStyle;rounded=0;orthogonalLoop=1;jettySize=auto;html=1;" parent="1" source="aJE1OrVwy0cm8b1BQcLN-27" edge="1">
          <mxGeometry relative="1" as="geometry">
            <mxPoint x="520" y="442" as="targetPoint" />
          </mxGeometry>
        </mxCell>
        <mxCell id="aJE1OrVwy0cm8b1BQcLN-27" value="crm_cust_info" style="text;strokeColor=#d79b00;fillColor=#ffe6cc;html=1;fontSize=13;fontStyle=1;verticalAlign=middle;align=center;" parent="1" vertex="1">
          <mxGeometry x="310" y="422" width="120" height="40" as="geometry" />
        </mxCell>
        <mxCell id="mp29d_6Jfno40X9PeaE7-12" style="edgeStyle=orthogonalEdgeStyle;rounded=0;orthogonalLoop=1;jettySize=auto;html=1;" parent="1" source="aJE1OrVwy0cm8b1BQcLN-28" edge="1">
          <mxGeometry relative="1" as="geometry">
            <mxPoint x="520" y="380" as="targetPoint" />
          </mxGeometry>
        </mxCell>
        <mxCell id="aJE1OrVwy0cm8b1BQcLN-28" value="crm_sales_details" style="text;strokeColor=#d79b00;fillColor=#ffe6cc;html=1;fontSize=13;fontStyle=1;verticalAlign=middle;align=center;" parent="1" vertex="1">
          <mxGeometry x="310" y="360" width="120" height="40" as="geometry" />
        </mxCell>
        <mxCell id="mp29d_6Jfno40X9PeaE7-1" value="" style="rounded=0;whiteSpace=wrap;html=1;fillColor=none;strokeColor=#666666;fontColor=#333333;" parent="1" vertex="1">
          <mxGeometry x="520" y="125" width="150" height="410" as="geometry" />
        </mxCell>
        <mxCell id="mp29d_6Jfno40X9PeaE7-2" value="&lt;font style=&quot;font-size: 16px;&quot;&gt;Silver Layer&lt;/font&gt;" style="text;strokeColor=#666666;fillColor=#f5f5f5;html=1;fontSize=20;fontStyle=1;verticalAlign=middle;align=center;fontColor=#333333;" parent="1" vertex="1">
          <mxGeometry x="520" y="100" width="150" height="30" as="geometry" />
        </mxCell>
        <mxCell id="mp29d_6Jfno40X9PeaE7-3" value="crm_sales_details" style="text;strokeColor=#666666;fillColor=#f5f5f5;html=1;fontSize=13;fontStyle=1;verticalAlign=middle;align=center;fontColor=#333333;" parent="1" vertex="1">
          <mxGeometry x="530" y="165" width="120" height="40" as="geometry" />
        </mxCell>
        <mxCell id="mp29d_6Jfno40X9PeaE7-4" value="crm_cust_info" style="text;strokeColor=#666666;fillColor=#f5f5f5;html=1;fontSize=13;fontStyle=1;verticalAlign=middle;align=center;fontColor=#333333;" parent="1" vertex="1">
          <mxGeometry x="530" y="225" width="120" height="40" as="geometry" />
        </mxCell>
        <mxCell id="mp29d_6Jfno40X9PeaE7-5" value="crm_prod_info" style="text;strokeColor=#666666;fillColor=#f5f5f5;html=1;fontSize=13;fontStyle=1;verticalAlign=middle;align=center;fontColor=#333333;" parent="1" vertex="1">
          <mxGeometry x="530" y="285" width="120" height="40" as="geometry" />
        </mxCell>
        <mxCell id="mp29d_6Jfno40X9PeaE7-6" value="erp_px_cat" style="text;strokeColor=#666666;fillColor=#f5f5f5;html=1;fontSize=13;fontStyle=1;verticalAlign=middle;align=center;fontColor=#333333;" parent="1" vertex="1">
          <mxGeometry x="530" y="475" width="120" height="40" as="geometry" />
        </mxCell>
        <mxCell id="mp29d_6Jfno40X9PeaE7-7" value="erp_loc_" style="text;strokeColor=#666666;fillColor=#f5f5f5;html=1;fontSize=13;fontStyle=1;verticalAlign=middle;align=center;fontColor=#333333;" parent="1" vertex="1">
          <mxGeometry x="530" y="417" width="120" height="40" as="geometry" />
        </mxCell>
        <mxCell id="mp29d_6Jfno40X9PeaE7-8" value="erp_cust_" style="text;strokeColor=#666666;fillColor=#f5f5f5;html=1;fontSize=13;fontStyle=1;verticalAlign=middle;align=center;fontColor=#333333;" parent="1" vertex="1">
          <mxGeometry x="530" y="355" width="120" height="40" as="geometry" />
        </mxCell>
        <mxCell id="_dLOW0XZqAXyg8sQu502-1" value="" style="rounded=0;whiteSpace=wrap;html=1;fillColor=none;strokeColor=#d6b656;" vertex="1" parent="1">
          <mxGeometry x="740" y="130" width="140" height="400" as="geometry" />
        </mxCell>
        <mxCell id="_dLOW0XZqAXyg8sQu502-2" value="&lt;font style=&quot;font-size: 16px;&quot;&gt;Gold Layer&lt;/font&gt;" style="text;html=1;fontSize=20;fontStyle=1;verticalAlign=middle;align=center;fillColor=#fff2cc;strokeColor=#d6b656;" vertex="1" parent="1">
          <mxGeometry x="740" y="99" width="140" height="30" as="geometry" />
        </mxCell>
        <mxCell id="_dLOW0XZqAXyg8sQu502-3" value="fact_sales" style="text;html=1;fontSize=13;fontStyle=1;verticalAlign=middle;align=center;fillColor=#fff2cc;strokeColor=#d6b656;" vertex="1" parent="1">
          <mxGeometry x="750" y="165" width="120" height="40" as="geometry" />
        </mxCell>
        <mxCell id="_dLOW0XZqAXyg8sQu502-4" value="dim_products" style="text;html=1;fontSize=13;fontStyle=1;verticalAlign=middle;align=center;fillColor=#fff2cc;strokeColor=#d6b656;" vertex="1" parent="1">
          <mxGeometry x="750" y="382" width="120" height="40" as="geometry" />
        </mxCell>
        <mxCell id="_dLOW0XZqAXyg8sQu502-5" value="dim_customers" style="text;html=1;fontSize=13;fontStyle=1;verticalAlign=middle;align=center;fillColor=#fff2cc;strokeColor=#d6b656;" vertex="1" parent="1">
          <mxGeometry x="750" y="265" width="120" height="40" as="geometry" />
        </mxCell>
        <mxCell id="_dLOW0XZqAXyg8sQu502-9" value="" style="endArrow=classic;html=1;rounded=0;exitX=1;exitY=0.5;exitDx=0;exitDy=0;entryX=0.029;entryY=0.176;entryDx=0;entryDy=0;entryPerimeter=0;" edge="1" parent="1" source="mp29d_6Jfno40X9PeaE7-3" target="_dLOW0XZqAXyg8sQu502-1">
          <mxGeometry width="50" height="50" relative="1" as="geometry">
            <mxPoint x="575" y="690" as="sourcePoint" />
            <mxPoint x="625" y="640" as="targetPoint" />
            <Array as="points" />
          </mxGeometry>
        </mxCell>
        <mxCell id="_dLOW0XZqAXyg8sQu502-10" value="" style="endArrow=classic;html=1;rounded=0;exitX=1;exitY=0.5;exitDx=0;exitDy=0;entryX=0.007;entryY=0.393;entryDx=0;entryDy=0;entryPerimeter=0;" edge="1" parent="1" source="mp29d_6Jfno40X9PeaE7-4" target="_dLOW0XZqAXyg8sQu502-1">
          <mxGeometry width="50" height="50" relative="1" as="geometry">
            <mxPoint x="660" y="250" as="sourcePoint" />
            <mxPoint x="710" y="200" as="targetPoint" />
          </mxGeometry>
        </mxCell>
        <mxCell id="_dLOW0XZqAXyg8sQu502-11" value="" style="endArrow=classic;html=1;rounded=0;entryX=0.021;entryY=0.407;entryDx=0;entryDy=0;entryPerimeter=0;" edge="1" parent="1" target="_dLOW0XZqAXyg8sQu502-1">
          <mxGeometry width="50" height="50" relative="1" as="geometry">
            <mxPoint x="650" y="380" as="sourcePoint" />
            <mxPoint x="700" y="330" as="targetPoint" />
          </mxGeometry>
        </mxCell>
        <mxCell id="_dLOW0XZqAXyg8sQu502-12" value="" style="endArrow=classic;html=1;rounded=0;entryX=0.021;entryY=0.429;entryDx=0;entryDy=0;entryPerimeter=0;" edge="1" parent="1" target="_dLOW0XZqAXyg8sQu502-1">
          <mxGeometry width="50" height="50" relative="1" as="geometry">
            <mxPoint x="650" y="440" as="sourcePoint" />
            <mxPoint x="700" y="390" as="targetPoint" />
          </mxGeometry>
        </mxCell>
        <mxCell id="_dLOW0XZqAXyg8sQu502-13" value="" style="endArrow=classic;html=1;rounded=0;entryX=-0.014;entryY=0.663;entryDx=0;entryDy=0;entryPerimeter=0;" edge="1" parent="1" target="_dLOW0XZqAXyg8sQu502-1">
          <mxGeometry width="50" height="50" relative="1" as="geometry">
            <mxPoint x="650" y="310" as="sourcePoint" />
            <mxPoint x="700" y="260" as="targetPoint" />
          </mxGeometry>
        </mxCell>
        <mxCell id="_dLOW0XZqAXyg8sQu502-14" value="" style="endArrow=classic;html=1;rounded=0;entryX=0;entryY=0.688;entryDx=0;entryDy=0;entryPerimeter=0;" edge="1" parent="1" target="_dLOW0XZqAXyg8sQu502-1">
          <mxGeometry width="50" height="50" relative="1" as="geometry">
            <mxPoint x="650" y="500" as="sourcePoint" />
            <mxPoint x="700" y="450" as="targetPoint" />
          </mxGeometry>
        </mxCell>
      </root>
    </mxGraphModel>
  </diagram>
</mxfile>
